<svg width="1280" height="640" viewBox="0 0 1280 640" fill="none" xmlns="http://www.w3.org/2000/svg">
<rect width="1280" height="640" fill="#191919"/>
<g clip-path="url(#clip0_901_12)">
<path d="M495.012 292.785C503.569 292.785 510.112 294.953 514.643 299.289C519.236 303.626 521.532 310.036 521.532 318.521V362.167H515.209V349.912C513.007 353.935 509.798 357.076 505.582 359.339C501.367 361.602 496.301 362.733 490.387 362.733C482.711 362.733 476.64 360.91 472.172 357.265C467.768 353.683 465.565 348.938 465.565 343.03C465.565 337.311 467.611 332.661 471.7 329.079C475.79 325.559 482.333 323.8 491.331 323.8H514.926V318.238C514.926 311.828 513.196 306.957 509.735 303.626C506.275 300.232 501.178 298.535 494.446 298.535C489.852 298.535 485.479 299.352 481.327 300.987C477.111 302.557 473.556 304.663 470.662 307.302L467.359 302.494C470.819 299.415 474.972 297.027 479.817 295.33C484.662 293.633 489.727 292.785 495.012 292.785ZM491.331 357.265C497.056 357.265 501.901 355.945 505.866 353.306C509.893 350.666 512.913 346.864 514.926 341.899V328.89H491.425C484.63 328.89 479.722 330.146 476.702 332.661C473.682 335.112 472.172 338.474 472.172 342.747C472.172 347.273 473.839 350.823 477.174 353.4C480.509 355.976 485.228 357.265 491.331 357.265ZM634.693 292.785C643.188 292.785 649.888 295.299 654.796 300.326C659.704 305.292 662.158 312.487 662.158 321.914V362.167H655.551V322.479C655.551 314.75 653.663 308.842 649.888 304.757C646.051 300.735 640.765 298.724 634.033 298.724C626.231 298.724 620.065 301.144 615.535 305.983C611.004 310.821 608.739 317.326 608.739 325.496V362.167H602.133V322.479C602.133 314.75 600.245 308.842 596.47 304.757C592.695 300.735 587.409 298.724 580.614 298.724C572.875 298.724 566.74 301.144 562.21 305.983C557.68 310.821 555.414 317.326 555.414 325.496V362.167H548.808V293.256H555.131V308.056C557.396 303.218 560.794 299.446 565.324 296.744C569.855 294.104 575.266 292.785 581.558 292.785C587.786 292.785 593.072 294.199 597.413 297.027C601.818 299.792 604.932 303.909 606.757 309.376C609.085 304.285 612.672 300.232 617.516 297.215C622.424 294.262 628.15 292.785 634.693 292.785ZM737.944 293.256H744.739L713.5 362.167H706.799L675.748 293.256H682.732L710.197 354.909L737.944 293.256ZM776.546 362.733C771.009 362.733 765.723 361.884 760.689 360.188C755.656 358.554 751.755 356.448 748.987 353.871L752.007 348.592C754.839 350.98 758.456 352.96 762.861 354.531C767.328 356.102 771.984 356.888 776.829 356.888C783.813 356.888 788.94 355.757 792.212 353.495C795.547 351.169 797.214 347.995 797.214 343.973C797.214 341.082 796.302 338.789 794.478 337.091C792.653 335.458 790.419 334.232 787.776 333.415C785.134 332.598 781.485 331.749 776.829 330.87C771.354 329.927 766.95 328.89 763.616 327.758C760.281 326.627 757.418 324.774 755.027 322.197C752.636 319.62 751.441 316.1 751.441 311.638C751.441 306.171 753.706 301.646 758.236 298.064C762.766 294.544 769.215 292.785 777.584 292.785C781.988 292.785 786.361 293.382 790.702 294.576C795.044 295.833 798.567 297.467 801.273 299.478L798.253 304.757C795.421 302.746 792.213 301.206 788.626 300.138C784.977 299.069 781.264 298.535 777.489 298.535C771.071 298.535 766.226 299.729 762.954 302.118C759.683 304.506 758.047 307.647 758.047 311.545C758.047 314.624 758.991 317.012 760.879 318.709C762.703 320.405 764.968 321.662 767.674 322.479C770.316 323.36 774.06 324.271 778.904 325.214C784.316 326.219 788.657 327.256 791.929 328.324C795.264 329.455 798.064 331.246 800.329 333.698C802.657 336.149 803.821 339.542 803.821 343.879C803.821 349.597 801.43 354.154 796.648 357.548C791.867 361.005 785.165 362.733 776.546 362.733ZM853.748 353.211L856.485 357.831C854.849 359.402 852.772 360.596 850.256 361.413C847.739 362.293 845.096 362.733 842.328 362.733C836.35 362.733 831.726 361.067 828.454 357.736C825.245 354.469 823.641 349.88 823.641 343.973V299.007H810.899V293.256H823.641V278.267H830.248V293.256H852.143V299.007H830.248V343.313C830.248 347.775 831.317 351.169 833.456 353.495C835.595 355.883 838.773 357.076 842.988 357.076C847.33 357.076 850.916 355.788 853.748 353.211ZM881.212 308.339C883.352 303.311 886.655 299.446 891.122 296.744C895.589 294.104 901.063 292.785 907.544 292.785V299.195L905.94 299.101C898.264 299.101 892.255 301.489 887.913 306.266C883.635 311.104 881.495 317.766 881.495 326.25V362.167H874.888V293.256H881.212V308.339ZM1012.78 292.785C1021.33 292.785 1028.07 295.299 1032.97 300.326C1037.88 305.292 1040.34 312.487 1040.34 321.914V362.167H1033.73V322.479C1033.73 314.75 1031.81 308.842 1027.97 304.757C1024.2 300.735 1018.91 298.724 1012.12 298.724C1004.38 298.724 998.242 301.144 993.712 305.983C989.182 310.821 986.917 317.326 986.917 325.496V362.167H980.31V322.479C980.31 314.75 978.423 308.842 974.647 304.757C970.872 300.735 965.587 298.724 958.792 298.724C951.053 298.724 944.887 301.144 940.294 305.983C935.763 310.821 933.498 317.326 933.498 325.496V362.167H926.892V293.256H933.31V308.056C935.575 303.218 938.972 299.446 943.502 296.744C948.033 294.104 953.443 292.785 959.736 292.785C965.965 292.785 971.25 294.199 975.592 297.027C979.996 299.792 983.111 303.909 984.935 309.376C987.2 304.285 990.787 300.232 995.694 297.215C1000.6 294.262 1006.3 292.785 1012.78 292.785Z" fill="url(#paint0_linear_901_12)"/>
<path d="M250.955 225.017V415.983M418.081 320.5L250.955 415.983M418.081 320.5L250.955 225.017" stroke="url(#paint1_linear_901_12)" stroke-width="24" stroke-linecap="round" stroke-linejoin="round"/>
</g>
<defs>
<linearGradient id="paint0_linear_901_12" x1="446.284" y1="277.467" x2="966.986" y2="520.557" gradientUnits="userSpaceOnUse">
<stop stop-color="#288B58"/>
<stop offset="1" stop-color="#1522F1"/>
</linearGradient>
<linearGradient id="paint1_linear_901_12" x1="337.659" y1="83.05" x2="334.519" y2="415.983" gradientUnits="userSpaceOnUse">
<stop stop-color="#1628E8"/>
<stop offset="1" stop-color="#268264"/>
</linearGradient>
<clipPath id="clip0_901_12">
<rect width="801" height="213" fill="white" transform="translate(239 214)"/>
</clipPath>
</defs>
</svg>
