<svg fill="none" xmlns="http://www.w3.org/2000/svg" viewBox="40 12 220.02 39.37">
<path d="M117.829 23.4544C120.168 23.4544 121.908 24.0736 123.048 25.3119C124.188 26.5306 124.758 28.2013 124.758 30.3241V44.152C124.758 44.3682 124.65 44.4763 124.434 44.4763H123.874C123.638 44.4763 123.52 44.3682 123.52 44.152V41.8818C123.52 41.8228 123.5 41.7933 123.461 41.7933C123.421 41.7933 123.392 41.8031 123.372 41.8228C122.684 42.7859 121.731 43.523 120.512 44.0341C119.274 44.5451 117.928 44.8006 116.473 44.8006C114.606 44.8006 113.024 44.3387 111.726 43.4149C110.429 42.4911 109.78 41.0562 109.78 39.1103C109.78 37.1251 110.527 35.5624 112.021 34.4224C113.535 33.2823 115.608 32.7123 118.242 32.7123H123.402C123.48 32.7123 123.52 32.673 123.52 32.5944V30.2357C123.52 28.5256 123.058 27.1595 122.134 26.1374C121.191 25.135 119.716 24.6338 117.711 24.6338C116.178 24.6338 114.901 24.9483 113.879 25.5773C112.856 26.2259 112.237 27.1202 112.021 28.2603C111.962 28.4765 111.834 28.5748 111.638 28.5551L111.019 28.4077C110.802 28.3684 110.704 28.2799 110.724 28.1423C110.999 26.7271 111.775 25.5969 113.053 24.7517C114.311 23.8868 115.903 23.4544 117.829 23.4544ZM116.562 43.6803C118.429 43.6803 120.06 43.2282 121.456 42.324C122.832 41.4198 123.52 40.1422 123.52 38.4911V33.9506C123.52 33.872 123.48 33.8327 123.402 33.8327H118.213C116.07 33.8327 114.331 34.2946 112.994 35.2184C111.677 36.1423 111.019 37.4297 111.019 39.0808C111.019 40.5943 111.54 41.7442 112.581 42.5304C113.603 43.297 114.93 43.6803 116.562 43.6803ZM151.972 23.5134C153.957 23.5134 155.559 24.1129 156.777 25.3119C157.996 26.5109 158.605 28.1227 158.605 30.1472V44.152C158.605 44.3682 158.497 44.4763 158.281 44.4763H157.721C157.485 44.4763 157.367 44.3682 157.367 44.152V30.3536C157.367 28.6042 156.856 27.2185 155.834 26.1964C154.792 25.1743 153.436 24.6633 151.765 24.6633C149.977 24.6633 148.551 25.1645 147.49 26.1669C146.429 27.1694 145.898 28.5355 145.898 30.2652V44.152C145.898 44.3682 145.79 44.4763 145.574 44.4763H144.984C144.768 44.4763 144.66 44.3682 144.66 44.152V30.3536C144.66 28.6042 144.149 27.2185 143.126 26.1964C142.124 25.1743 140.778 24.6633 139.087 24.6633C137.279 24.6633 135.854 25.1645 134.812 26.1669C133.751 27.1694 133.22 28.5355 133.22 30.2652V44.152C133.22 44.3682 133.112 44.4763 132.896 44.4763H132.335C132.1 44.4763 131.982 44.3682 131.982 44.152V24.1325C131.982 23.9163 132.1 23.8082 132.335 23.8082H132.896C133.112 23.8082 133.22 23.9163 133.22 24.1325V26.4323C133.22 26.4912 133.24 26.5207 133.279 26.5207C133.299 26.5207 133.328 26.5109 133.367 26.4912C133.937 25.5281 134.733 24.791 135.756 24.28C136.778 23.7689 137.957 23.5134 139.294 23.5134C140.787 23.5134 142.065 23.8475 143.126 24.5158C144.208 25.1841 144.964 26.1374 145.397 27.3758C145.436 27.4347 145.465 27.4642 145.485 27.4642C145.524 27.4642 145.554 27.4347 145.574 27.3758C146.065 26.1178 146.871 25.1546 147.991 24.4864C149.112 23.8377 150.438 23.5134 151.972 23.5134ZM171.136 44.4763C170.939 44.4763 170.812 44.3977 170.753 44.2405L163.765 24.162L163.736 24.0441C163.736 23.9851 163.765 23.9262 163.824 23.8672C163.903 23.8279 163.981 23.8082 164.06 23.8082H164.738C164.954 23.8082 165.072 23.8868 165.092 24.0441L171.401 42.442C171.441 42.4813 171.47 42.5009 171.49 42.5009C171.529 42.5009 171.559 42.4813 171.578 42.442L177.858 24.0736C177.917 23.8967 178.035 23.8082 178.212 23.8082H178.89C178.989 23.8082 179.067 23.8377 179.126 23.8967C179.185 23.9753 179.205 24.0638 179.185 24.162L172.197 44.2405C172.178 44.3977 172.05 44.4763 171.814 44.4763H171.136ZM190.684 44.6532C189.288 44.6532 188.05 44.4174 186.969 43.9456C185.907 43.4739 185.072 42.8351 184.463 42.0292C183.853 41.2429 183.549 40.3683 183.549 39.4051V38.6975C183.549 38.4813 183.657 38.3732 183.873 38.3732H184.404C184.64 38.3732 184.757 38.4813 184.757 38.6975V39.3462C184.757 40.0931 185.003 40.7909 185.495 41.4395C185.986 42.0881 186.684 42.609 187.588 43.0021C188.472 43.3756 189.495 43.5623 190.654 43.5623C192.364 43.5623 193.75 43.1496 194.811 42.324C195.893 41.4788 196.433 40.4076 196.433 39.1103C196.433 38.2061 196.168 37.4789 195.637 36.9285C195.087 36.3781 194.448 35.9555 193.721 35.6607C192.993 35.3659 191.873 34.9924 190.359 34.5403C188.905 34.0686 187.726 33.6361 186.821 33.243C185.898 32.8302 185.141 32.2799 184.551 31.5919C183.942 30.8843 183.637 29.99 183.637 28.9089C183.637 27.3168 184.276 26.0392 185.554 25.076C186.831 24.1129 188.502 23.6313 190.566 23.6313C192.649 23.6313 194.34 24.1227 195.637 25.1055C196.934 26.108 197.583 27.3659 197.583 28.8794V29.0858C197.583 29.302 197.475 29.4101 197.259 29.4101H196.728C196.492 29.4101 196.374 29.3119 196.374 29.1153V28.8794C196.374 27.7001 195.834 26.7173 194.752 25.9311C193.671 25.1448 192.266 24.7517 190.536 24.7517C188.826 24.7517 187.45 25.1252 186.409 25.8721C185.386 26.6387 184.875 27.6215 184.875 28.8205C184.875 29.646 185.121 30.334 185.613 30.8843C186.104 31.415 186.733 31.8573 187.499 32.2111C188.246 32.5452 189.278 32.9187 190.595 33.3315C192.207 33.8229 193.465 34.2553 194.369 34.6288C195.273 35.0022 196.05 35.5428 196.698 36.2504C197.347 36.9776 197.671 37.9211 197.671 39.0808C197.671 40.6926 197.033 42.0194 195.755 43.0611C194.477 44.1225 192.787 44.6532 190.684 44.6532ZM210.792 43.3265H211.706C211.922 43.3265 212.03 43.4346 212.03 43.6508V44.152C212.03 44.3682 211.922 44.4763 211.706 44.4763H210.703C208.895 44.4763 207.509 44.1029 206.546 43.3559C205.602 42.609 205.131 41.2626 205.131 39.3167V25.0465C205.131 24.9483 205.091 24.8991 205.013 24.8991H202.359C202.143 24.8991 202.035 24.791 202.035 24.5748V24.1325C202.035 23.9163 202.143 23.8082 202.359 23.8082H205.013C205.091 23.8082 205.131 23.7591 205.131 23.6608V18.8844C205.131 18.6682 205.239 18.5601 205.455 18.5601H206.015C206.231 18.5601 206.34 18.6682 206.34 18.8844V23.6608C206.34 23.7591 206.379 23.8082 206.458 23.8082H211.617C211.833 23.8082 211.941 23.9163 211.941 24.1325V24.5748C211.941 24.791 211.833 24.8991 211.617 24.8991H206.458C206.379 24.8991 206.34 24.9483 206.34 25.0465V39.2282C206.34 40.781 206.693 41.8523 207.401 42.442C208.128 43.0316 209.258 43.3265 210.792 43.3265ZM225.946 23.6313C226.87 23.6313 227.696 23.7984 228.423 24.1325C228.639 24.2112 228.688 24.3488 228.57 24.5453L228.334 25.194C228.256 25.3316 228.177 25.4003 228.099 25.4003C227.981 25.4003 227.892 25.3709 227.833 25.3119C227.263 25.0957 226.595 24.9876 225.828 24.9876C224.728 24.9876 223.735 25.2922 222.85 25.9016C221.966 26.5109 221.278 27.3168 220.787 28.3192C220.295 29.3217 220.05 30.4126 220.05 31.5919V44.152C220.05 44.3682 219.932 44.4763 219.696 44.4763H219.136C218.919 44.4763 218.811 44.3682 218.811 44.152V24.1325C218.811 23.9163 218.919 23.8082 219.136 23.8082H219.696C219.932 23.8082 220.05 23.9163 220.05 24.1325V27.4642C220.05 27.5232 220.059 27.5625 220.079 27.5821C220.099 27.5821 220.128 27.5625 220.167 27.5232C220.718 26.3242 221.494 25.3807 222.497 24.6927C223.499 23.9851 224.649 23.6313 225.946 23.6313ZM253.337 23.5134C255.322 23.5134 256.924 24.1129 258.143 25.3119C259.381 26.5109 260 28.1227 260 30.1472V44.152C260 44.3682 259.892 44.4763 259.676 44.4763H259.086C258.87 44.4763 258.762 44.3682 258.762 44.152V30.3536C258.762 28.6042 258.241 27.2185 257.199 26.1964C256.177 25.1743 254.821 24.6633 253.13 24.6633C251.342 24.6633 249.917 25.1645 248.855 26.1669C247.813 27.1694 247.293 28.5355 247.293 30.2652V44.152C247.293 44.3682 247.175 44.4763 246.939 44.4763H246.379C246.162 44.4763 246.054 44.3682 246.054 44.152V30.3536C246.054 28.6042 245.543 27.2185 244.521 26.1964C243.499 25.1743 242.153 24.6633 240.482 24.6633C238.654 24.6633 237.219 25.1645 236.177 26.1669C235.135 27.1694 234.615 28.5355 234.615 30.2652V44.152C234.615 44.3682 234.506 44.4763 234.29 44.4763H233.701C233.484 44.4763 233.376 44.3682 233.376 44.152V24.1325C233.376 23.9163 233.484 23.8082 233.701 23.8082H234.29C234.506 23.8082 234.615 23.9163 234.615 24.1325V26.4323C234.615 26.4912 234.624 26.5207 234.644 26.5207C234.683 26.5207 234.713 26.5109 234.732 26.4912C235.302 25.5281 236.099 24.791 237.121 24.28C238.143 23.7689 239.332 23.5134 240.688 23.5134C242.162 23.5134 243.44 23.8475 244.521 24.5158C245.582 25.1841 246.339 26.1374 246.791 27.3758C246.811 27.4347 246.84 27.4642 246.88 27.4642C246.899 27.4642 246.919 27.4347 246.939 27.3758C247.45 26.1178 248.256 25.1546 249.356 24.4864C250.477 23.8377 251.804 23.5134 253.337 23.5134Z" fill="#7DE38D"/>
<path d="M91.787 12C88.7489 17.3736 84.0637 21.9941 78.3287 24.329C73.9779 26.0596 69.3197 23.9212 64.9185 24.8776C63.1586 25.4755 63.851 27.2549 64.4094 28.4718C66.5679 27.7262 68.7389 26.8895 71.0446 26.7555C75.6892 26.2492 79.6201 29.5691 84.2223 29.5199C88.6578 30.1951 92.8557 28.4295 96.7803 26.5934C95.2513 30.1808 93.3167 34.4989 89.1738 35.5045C84.8929 36.1517 80.9202 33.7257 77.7131 31.144C78.5028 32.6353 80.0107 34.6272 79.6826 36.4552C79.2633 39.1841 78.3333 38.8748 76.6857 40.9354C77.413 41.5957 78.1454 42.2365 78.8722 42.8969C78.3241 45.0307 77.9513 46.1062 75.101 47.2516C73.4098 47.9314 71.7089 49.8975 70.6924 50.0973C69.9954 50.2348 69.1083 50.67 69.1083 48.9806C69.1083 47.2923 72.9293 45.7242 75.101 44.4729C74.3599 43.4174 72.1614 43.0589 71.6648 41.8557C71.3785 39.9927 71.9105 39.2814 72.1482 37.4391C70.0172 38.4092 67.9847 39.605 65.8474 40.5689C64.1018 41.3706 62.126 40.9554 60.2751 40.9623C60.3169 41.9118 60.3587 42.8614 60.3936 43.8115C58.5013 44.8243 56.7845 46.1354 55.3093 47.6943C56.1265 48.2922 56.993 48.8168 58.0049 50.1999C59.018 51.5829 57.3475 51.3452 57.3475 51.3452C57.3475 51.3452 53.8288 51.1969 53.1794 49.0722C51.8874 46.0484 54.953 43.7691 56.7553 41.8557C55.8963 39.5357 53.0815 38.8113 51.3353 40.6891C48.3951 40.1966 45.3988 40.3936 42.4448 40.0557C40.9083 39.9784 40.5309 38.3961 40 37.2507C41.1528 36.7501 42.375 36.3716 43.4436 35.6821C44.8192 34.2475 45.2877 31.8839 47.3408 31.1807C49.7988 30.2598 53.7939 25.2676 53.7939 26.8694C53.7939 28.4718 52.1932 30.1556 53.1794 32.4463C56.7553 31.7917 56.9294 31.1034 59.018 30.6538C57.3486 29.0004 55.2955 27.2703 55.1695 24.7247C54.6037 19.9353 58.4591 15.5816 62.9078 14.4912C67.4687 13.4776 72.0709 14.7644 76.6324 15.088C81.8216 15.1722 87.1156 14.3704 91.787 12V12Z" fill="#7DE38D"/>
</svg>