<svg xmlns="http://www.w3.org/2000/svg" width="500" height="500" viewBox="0 0 500 500" version="1.1">
	<path d="M 101.500 71.903 C 100.400 72.386, 98.375 73.992, 97 75.471 L 94.500 78.161 94.249 248.830 C 94 418.013, 94.015 419.529, 95.999 422.775 C 97.100 424.576, 99.155 426.489, 100.566 427.025 C 107.372 429.613, 106.216 430.203, 196.264 378.150 C 243.694 350.732, 308.825 313.119, 341 294.565 C 375.809 274.492, 400.816 259.453, 402.750 257.430 C 407.150 252.826, 407.357 246.478, 403.250 242.100 C 399.105 237.682, 111.322 71.858, 107 71.397 C 105.075 71.192, 102.600 71.420, 101.500 71.903 M 118 249.441 C 118 329.498, 118.171 395, 118.380 395 C 118.590 395, 144.352 380.216, 175.630 362.147 C 206.909 344.077, 263.100 311.637, 300.500 290.057 C 337.900 268.478, 368.845 250.494, 369.266 250.095 C 369.788 249.599, 140.195 115.972, 118.750 104.291 C 118.338 104.066, 118 169.384, 118 249.441" stroke="none" fill="black" fill-rule="evenodd"/>
</svg>